<?xml version="1.0" encoding="UTF-8"?>
<svg width="434px" height="221px" viewBox="0 0 434 221" version="1.1" xmlns="http://www.w3.org/2000/svg" xmlns:xlink="http://www.w3.org/1999/xlink">
    <!-- Generator: Sketch 46.2 (44496) - http://www.bohemiancoding.com/sketch -->
    <title>neuron_fig1</title>
    <desc>Created with Sketch.</desc>
    <defs></defs>
    <g id="Page-1" stroke="none" stroke-width="1" fill="none" fill-rule="evenodd">
        <circle id="Oval" stroke="#979797" fill="#D8D8D8" cx="233" cy="107" r="46"></circle>
        <g transform="translate(17.000000, 144.000000)" fill="#000000">
            <path d="M4.120123,2.350035 C4.120123,1.284936 3.268044,0.432858 2.229571,0.432858 C1.164473,0.432858 0.3123926,1.284936 0.3123926,2.350035 C0.3123926,3.388508 1.164473,4.2405877 2.229571,4.2405877 C3.268044,4.2405877 4.120123,3.388508 4.120123,2.350035" id="Fill-1"></path>
            <path d="M14.02552,2.350035 C14.02552,1.284936 13.14685,0.432858 12.10834,0.432858 C11.06989,0.432858 10.21782,1.284936 10.21782,2.350035 C10.21782,3.388508 11.06989,4.2405877 12.10834,4.2405877 C13.14685,4.2405877 14.02552,3.388508 14.02552,2.350035" id="Fill-3"></path>
            <path d="M24.01086,2.350035 C24.01086,1.284936 23.15878,0.432858 22.12027,0.432858 C21.08182,0.432858 20.20309,1.284936 20.20309,2.350035 C20.20309,3.388508 21.08182,4.2405877 22.12027,4.2405877 C23.15878,4.2405877 24.01086,3.388508 24.01086,2.350035" id="Fill-4"></path>
        </g>
        <path d="M74.5,28.5 L190.5,84.5" id="Line" stroke="#979797" stroke-linecap="square"></path>
        <path id="Line-decoration-1" d="M190.5,84.5 L182.07829,77.1030552 L179.469795,82.506365 L190.5,84.5 Z" stroke="#979797" stroke-linecap="square"></path>
        <path d="M80.5,97.5 L186.5,103.5" id="Line-2" stroke="#979797" stroke-linecap="square"></path>
        <path id="Line-2-decoration-1" d="M186.5,103.5 L175.8868,99.8944507 L175.54772,105.884862 L186.5,103.5 Z" stroke="#979797" stroke-linecap="square"></path>
        <path d="M77.5,202.5 L191.5,125.5" id="Line-3" stroke="#979797" stroke-linecap="square"></path>
        <path id="Line-3-decoration-1" d="M191.5,125.5 L180.871087,129.058963 L184.229423,134.031044 L191.5,125.5 Z" stroke="#979797" stroke-linecap="square"></path>
        <path d="M280.5,105.5 L406.503968,105.5" id="Line-4" stroke="#979797" stroke-linecap="square"></path>
        <path id="Line-4-decoration-1" d="M406.503968,105.5 L395.703968,102.5 L395.703968,108.5 L406.503968,105.5 Z" stroke="#979797" stroke-linecap="square"></path>
        <path d="M432.429138,97.9643345 C432.562268,97.4584045 432.562268,97.3785145 432.562268,97.1388345 C432.562268,96.4731945 432.056338,96.1536345 431.523828,96.1536345 C431.151028,96.1536345 430.591858,96.3666545 430.272288,96.9258145 C430.192468,97.0856045 429.899558,98.2039345 429.766428,98.8429945 C429.500108,99.7749645 429.260498,100.760175 429.047478,101.718795 L427.423208,108.189274 C427.290018,108.721795 425.745638,111.251375 423.375839,111.251375 C421.538512,111.251375 421.139098,109.653762 421.139098,108.322405 C421.139098,106.671485 421.751531,104.461394 422.976384,101.292755 C423.535552,99.8282045 423.695334,99.4288145 423.695334,98.7098645 C423.695334,97.0856045 422.550345,95.7542445 420.739684,95.7542445 C417.331369,95.7542445 416,100.973195 416,101.292755 C416,101.665485 416.372781,101.665485 416.426039,101.665485 C416.79882,101.665485 416.825453,101.585665 417.01184,100.999844 C417.970428,97.6447645 419.408315,96.5530145 420.633174,96.5530145 C420.926078,96.5530145 421.538512,96.5530145 421.538512,97.6980045 C421.538512,98.6033945 421.165724,99.5352945 420.926078,100.227654 C419.488199,104.035354 418.84914,106.085665 418.84914,107.763234 C418.84914,110.958533 421.112472,112.023631 423.216057,112.023631 C424.627304,112.023631 425.852188,111.411157 426.837388,110.42595 C426.384698,112.289889 425.958658,114.047291 424.52076,115.937843 C423.588858,117.162702 422.204196,118.201175 420.553297,118.201175 C420.074,118.201175 418.449726,118.094664 417.837293,116.710037 C418.4231,116.710037 418.875765,116.710037 419.381689,116.283997 C419.727844,115.937843 420.100625,115.485178 420.100625,114.79286 C420.100625,113.674509 419.115411,113.541368 418.769256,113.541368 C417.943803,113.541368 416.745569,114.127175 416.745569,115.884585 C416.745569,117.668626 418.343216,119 420.553297,119 C424.254502,119 427.955728,115.724823 428.967588,111.677414 L432.429138,97.9643345" fill="#000000"></path>
        <g transform="translate(9.000000, 17.000000)" fill="#000000">
            <path d="M11.83845,5.18443 C12.05147,4.25246 12.87696,0.95068 15.37996,0.95068 C15.56633,0.95068 16.41841,0.95068 17.19059,1.40331 C16.17873,1.58974 15.45978,2.49506 15.45978,3.34714 C15.45978,3.93296 15.85924,4.5986 16.81779,4.5986 C17.61663,4.5986 18.76162,3.95954 18.76162,2.52164 C18.76162,0.65777 16.63143,0.15184 15.4332,0.15184 C13.32959,0.15184 12.07812,2.06902 11.65208,2.86786 C10.74677,0.49799 8.802936,0.15184 7.764491,0.15184 C4.036632,0.15184 1.986313,4.78504 1.986313,5.69036 C1.986313,6.0365 2.359101,6.0365 2.412352,6.0365 C2.705256,6.0365 2.811766,5.95661 2.89165,5.63712 C4.11651,1.82935 6.486359,0.95068 7.711253,0.95068 C8.376897,0.95068 9.62843,1.27018 9.62843,3.34714 C9.62843,4.46548 9.04261,6.86193 7.711253,11.89451 C7.125431,14.131252 5.873925,15.62239 4.276278,15.62239 C4.063258,15.62239 3.237805,15.62239 2.492236,15.169697 C3.397573,14.983331 4.169768,14.237728 4.169768,13.225935 C4.169768,12.26731 3.397573,11.9744 2.865024,11.9744 C1.773293,11.9744 0.867963,12.90637 0.867963,14.051361 C0.867963,15.702274 2.67863,16.42121 4.249652,16.42121 C6.619494,16.42121 7.924272,13.918232 8.030748,13.678559 C8.456787,15.009984 9.76156,16.42121 11.89176,16.42121 C15.59298,16.42121 17.64329,11.78804 17.64329,10.88272 C17.64329,10.53657 17.32372,10.53657 17.21725,10.53657 C16.89768,10.53657 16.81779,10.6697 16.76456,10.93596 C15.56633,14.770311 13.11657,15.62239 11.97165,15.62239 C10.58698,15.62239 10.00116,14.4774 10.00116,13.25252 C10.00116,12.48033 10.21418,11.68149 10.61364,10.11053 L11.83845,5.18443" id="Fill-1"></path>
            <path d="M28.72031,5.47734 C28.72031,4.81162 28.69366,4.78504 27.97471,4.78504 C26.37709,6.356 24.08712,6.38265 23.07526,6.38265 L23.07526,7.28797 C23.66108,7.28797 25.312,7.28797 26.69659,6.59567 L26.69659,19.37686 C26.69659,20.202313 26.69659,20.521843 24.19359,20.521843 L23.23504,20.521843 L23.23504,21.427173 C23.68773,21.400547 26.77648,21.320663 27.70845,21.320663 C28.48064,21.320663 31.64928,21.400547 32.18186,21.427173 L32.18186,20.521843 L31.24989,20.521843 C28.72031,20.521843 28.72031,20.202313 28.72031,19.37686 L28.72031,5.47734" id="Fill-3"></path>
        </g>
        <g transform="translate(9.000000, 86.000000)" fill="#000000">
            <path d="M11.83845,5.18443 C12.05147,4.25246 12.87696,0.95068 15.37996,0.95068 C15.56633,0.95068 16.41841,0.95068 17.19059,1.40331 C16.17873,1.58974 15.45978,2.49506 15.45978,3.34714 C15.45978,3.93296 15.85924,4.5986 16.81779,4.5986 C17.61663,4.5986 18.76162,3.95954 18.76162,2.52164 C18.76162,0.65777 16.63143,0.15184 15.4332,0.15184 C13.32959,0.15184 12.07812,2.06902 11.65208,2.86786 C10.74677,0.49799 8.802936,0.15184 7.764491,0.15184 C4.036632,0.15184 1.986313,4.78504 1.986313,5.69036 C1.986313,6.0365 2.359101,6.0365 2.412352,6.0365 C2.705256,6.0365 2.811766,5.95661 2.89165,5.63712 C4.11651,1.82935 6.486359,0.95068 7.711253,0.95068 C8.376897,0.95068 9.62843,1.27018 9.62843,3.34714 C9.62843,4.46548 9.04261,6.86193 7.711253,11.89451 C7.125431,14.131252 5.873925,15.62239 4.276278,15.62239 C4.063258,15.62239 3.237805,15.62239 2.492236,15.169697 C3.397573,14.983331 4.169768,14.237728 4.169768,13.225935 C4.169768,12.26731 3.397573,11.9744 2.865024,11.9744 C1.773293,11.9744 0.867963,12.90637 0.867963,14.051361 C0.867963,15.702274 2.67863,16.42121 4.249652,16.42121 C6.619494,16.42121 7.924272,13.918232 8.030748,13.678559 C8.456787,15.009984 9.76156,16.42121 11.89176,16.42121 C15.59298,16.42121 17.64329,11.78804 17.64329,10.88272 C17.64329,10.53657 17.32372,10.53657 17.21725,10.53657 C16.89768,10.53657 16.81779,10.6697 16.76456,10.93596 C15.56633,14.770311 13.11657,15.62239 11.97165,15.62239 C10.58698,15.62239 10.00116,14.4774 10.00116,13.25252 C10.00116,12.48033 10.21418,11.68149 10.61364,10.11053 L11.83845,5.18443" id="Fill-1"></path>
            <path d="M32.9807,16.873882 L32.12863,16.873882 C32.07532,17.406431 31.80906,18.897569 31.48957,19.137215 C31.27655,19.296976 29.35937,19.296976 29.01322,19.296976 L24.40661,19.296976 C27.01615,16.953759 27.89482,16.261449 29.41261,15.089806 C31.27655,13.598669 32.9807,12.05429 32.9807,9.68449 C32.9807,6.64891 30.34458,4.78504 27.12263,4.78504 C24.00722,4.78504 21.90368,6.96847 21.90368,9.25845 C21.90368,10.53657 22.99536,10.6697 23.23504,10.6697 C23.84744,10.6697 24.56639,10.24366 24.56639,9.33827 C24.56639,8.88565 24.40661,8.00692 23.10191,8.00692 C23.8741,6.24952 25.57825,5.69036 26.74983,5.69036 C29.25283,5.69036 30.5576,7.63412 30.5576,9.68449 C30.5576,11.84127 29.01322,13.572084 28.21438,14.4774 L22.16994,20.441958 C21.90368,20.681604 21.90368,20.734862 21.90368,21.427173 L32.2351,21.427173 L32.9807,16.873882" id="Fill-3"></path>
        </g>
        <g transform="translate(17.000000, 190.000000)" fill="#000000">
            <path d="M11.82859,5.97429 C12.04161,5.04232 12.86703,1.7139 15.39662,1.7139 C15.5564,1.7139 16.43513,1.7139 17.18066,2.19317 C16.1688,2.37961 15.44992,3.25827 15.44992,4.137 C15.44992,4.69617 15.84931,5.38847 16.80786,5.38847 C17.6067,5.38847 18.75169,4.74941 18.75169,3.31158 C18.75169,1.44764 16.64815,0.94171 15.42327,0.94171 C13.34631,0.94171 12.06819,2.83223 11.64215,3.65773 C10.73684,1.28786 8.819659,0.94171 7.781213,0.94171 C4.026709,0.94171 1.976396,5.5749 1.976396,6.45357 C1.976396,6.82637 2.349177,6.82637 2.429061,6.82637 C2.695332,6.82637 2.801842,6.74648 2.881726,6.42698 C4.106593,2.61921 6.476435,1.7139 7.701322,1.7139 C8.366966,1.7139 9.645084,2.06004 9.645084,4.137 C9.645084,5.25534 9.032678,7.65186 7.701322,12.68444 C7.115494,14.89453 5.864002,16.41225 4.29298,16.41225 C4.07996,16.41225 3.254514,16.41225 2.482313,15.95963 C3.38765,15.77319 4.18647,15.02766 4.18647,14.0158 C4.18647,13.03059 3.38765,12.76433 2.855101,12.76433 C1.763376,12.76433 0.8846672,13.69624 0.8846672,14.84122 C0.8846672,16.49214 2.668707,17.211094 4.239729,17.211094 C6.609571,17.211094 7.914342,14.68151 8.020818,14.46849 C8.446857,15.79985 9.751628,17.211094 11.90841,17.211094 C15.60964,17.211094 17.63336,12.5779 17.63336,11.67258 C17.63336,11.32643 17.31379,11.32643 17.20732,11.32643 C16.88775,11.32643 16.80786,11.45956 16.75463,11.69924 C15.5564,15.56017 13.10671,16.41225 11.96172,16.41225 C10.57705,16.41225 9.991233,15.26726 9.991233,14.04245 C9.991233,13.24361 10.20425,12.47142 10.60371,10.87374 L11.82859,5.97429" id="Fill-1"></path>
            <path d="M23.38489,20.619409 C23.27834,20.965565 23.14522,21.577998 23.14522,21.657882 C23.14522,22.217057 23.59791,22.456702 23.99729,22.456702 C24.44999,22.456702 24.84937,22.137173 24.9825,21.897527 C25.08905,21.684508 25.30207,20.885681 25.40854,20.353131 C25.54167,19.873806 25.808,18.728885 25.96771,18.089826 C26.12749,17.557243 26.26062,16.99807 26.39375,16.41225 C26.66007,15.40039 26.71331,15.18737 27.45885,14.17558 C28.15121,13.16372 29.32279,11.85895 31.21338,11.85895 C32.65121,11.85895 32.67786,13.13707 32.67786,13.61641 C32.67786,15.10755 31.61277,17.903391 31.21338,18.941905 C30.92047,19.660787 30.84058,19.873806 30.84058,20.29988 C30.84058,21.631249 31.93226,22.456702 33.21038,22.456702 C35.71338,22.456702 36.83171,18.995143 36.83171,18.622341 C36.83171,18.302846 36.48557,18.302846 36.43233,18.302846 C36.05953,18.302846 36.03294,18.462559 35.95305,18.728885 C35.36723,20.725919 34.30213,21.764392 33.29027,21.764392 C32.75775,21.764392 32.65121,21.41823 32.65121,20.885681 C32.65121,20.29988 32.78434,19.98035 33.23703,18.862014 C33.52994,18.063173 34.56839,15.42705 34.56839,14.0158 C34.56839,11.59269 32.65121,11.16665 31.31985,11.16665 C29.21631,11.16665 27.83165,12.44477 27.08611,13.42998 C26.89968,11.69924 25.40854,11.16665 24.39675,11.16665 C23.305,11.16665 22.74583,11.93884 22.39968,12.49801 C21.8671,13.42998 21.52095,14.86788 21.52095,15.00101 C21.52095,15.32057 21.8671,15.32057 21.94699,15.32057 C22.29314,15.32057 22.31979,15.24068 22.47957,14.57497 C22.85231,13.08383 23.33165,11.85895 24.31686,11.85895 C24.9825,11.85895 25.14228,12.41812 25.14228,13.08383 C25.14228,13.56311 24.92926,14.49508 24.7429,15.16079 C24.55646,15.85309 24.31686,16.86495 24.18373,17.424114 L23.38489,20.619409" id="Fill-3"></path>
            <path d="M49.13362,18.808708 C48.30819,19.048381 48.30819,19.847222 48.30819,19.847222 C48.30819,20.166717 48.52121,20.592784 49.10703,20.592784 C49.61289,20.592784 50.22537,20.166717 50.22537,19.367944 C50.22537,18.329431 49.05373,17.903391 48.09517,17.903391 C46.92353,17.903391 46.17799,18.648994 45.83185,19.128272 C45.24603,18.116411 44.10104,17.903391 43.46198,17.903391 C41.2253,17.903391 39.94719,20.007003 39.94719,20.672661 C39.94719,20.938939 40.24003,20.938939 40.31992,20.938939 C40.4797,20.938939 40.61283,20.912313 40.69272,20.725919 C41.2253,18.96849 42.68979,18.515866 43.38209,18.515866 C43.96791,18.515866 44.6602,18.75547 44.6602,19.714093 C44.6602,20.166717 44.31406,21.391604 43.72823,23.761446 C43.46198,24.799919 42.63655,25.412352 41.86436,25.412352 C41.73117,25.412352 41.2253,25.412352 40.77261,25.119449 C41.59804,24.826545 41.59804,24.134234 41.59804,24.080976 C41.59804,23.548427 41.19865,23.335407 40.79926,23.335407 C40.34657,23.335407 39.70751,23.681569 39.70751,24.533648 C39.70751,25.625372 40.90574,25.998153 41.81106,25.998153 C42.79626,25.998153 43.62176,25.438978 44.0478,24.799919 C44.76675,25.865017 45.91174,25.998153 46.44425,25.998153 C48.70758,25.998153 49.9857,23.867956 49.9857,23.228897 C49.9857,22.989252 49.6662,22.989252 49.61289,22.989252 C49.2934,22.989252 49.26675,23.095762 49.21351,23.25553 C48.68099,24.853177 47.32298,25.412352 46.52414,25.412352 C45.99156,25.412352 45.24603,25.199333 45.24603,24.187486 C45.24603,23.974466 45.24603,23.867956 45.40581,23.25553 C45.69872,22.004037 46.17799,20.007003 46.33778,19.68744 C46.5508,19.234747 47.1632,18.515866 48.06852,18.515866 C48.12176,18.515866 48.73423,18.515866 49.13362,18.808708" id="Fill-4"></path>
        </g>
    </g>
</svg>