<?xml version="1.0" encoding="UTF-8"?>
<svg width="425px" height="199px" viewBox="0 0 425 199" version="1.1" xmlns="http://www.w3.org/2000/svg" xmlns:xlink="http://www.w3.org/1999/xlink" style="background: #FFFFFF;">
    <!-- Generator: Sketch 46.2 (44496) - http://www.bohemiancoding.com/sketch -->
    <title>neuron_fig1</title>
    <desc>Created with Sketch.</desc>
    <defs></defs>
    <g id="Page-1" stroke="none" stroke-width="1" fill="none" fill-rule="evenodd">
        <circle id="Oval" stroke="#979797" fill="#D8D8D8" cx="224" cy="90" r="46"></circle>
        <g transform="translate(8.000000, 127.000000)" fill="#000000">
            <path d="M4.120123,2.350035 C4.120123,1.284936 3.268044,0.432858 2.229571,0.432858 C1.164473,0.432858 0.3123926,1.284936 0.3123926,2.350035 C0.3123926,3.388508 1.164473,4.2405877 2.229571,4.2405877 C3.268044,4.2405877 4.120123,3.388508 4.120123,2.350035" id="Fill-1"></path>
            <path d="M14.02552,2.350035 C14.02552,1.284936 13.14685,0.432858 12.10834,0.432858 C11.06989,0.432858 10.21782,1.284936 10.21782,2.350035 C10.21782,3.388508 11.06989,4.2405877 12.10834,4.2405877 C13.14685,4.2405877 14.02552,3.388508 14.02552,2.350035" id="Fill-3"></path>
            <path d="M24.01086,2.350035 C24.01086,1.284936 23.15878,0.432858 22.12027,0.432858 C21.08182,0.432858 20.20309,1.284936 20.20309,2.350035 C20.20309,3.388508 21.08182,4.2405877 22.12027,4.2405877 C23.15878,4.2405877 24.01086,3.388508 24.01086,2.350035" id="Fill-4"></path>
        </g>
        <path d="M65.5,11.5 L181.5,67.5" id="Line" stroke="#979797" stroke-linecap="square"></path>
        <path id="Line-decoration-1" d="M181.5,67.5 L173.07829,60.1030552 L170.469795,65.506365 L181.5,67.5 Z" stroke="#979797" stroke-linecap="square"></path>
        <path d="M71.5,80.5 L177.5,86.5" id="Line-2" stroke="#979797" stroke-linecap="square"></path>
        <path id="Line-2-decoration-1" d="M177.5,86.5 L166.8868,82.8944507 L166.54772,88.8848618 L177.5,86.5 Z" stroke="#979797" stroke-linecap="square"></path>
        <path d="M68.5,185.5 L182.5,108.5" id="Line-3" stroke="#979797" stroke-linecap="square"></path>
        <path id="Line-3-decoration-1" d="M182.5,108.5 L171.871087,112.058963 L175.229423,117.031044 L182.5,108.5 Z" stroke="#979797" stroke-linecap="square"></path>
        <path d="M271.5,88.5 L397.503968,88.5" id="Line-4" stroke="#979797" stroke-linecap="square"></path>
        <path id="Line-4-decoration-1" d="M397.503968,88.5 L386.703968,85.5 L386.703968,91.5 L397.503968,88.5 Z" stroke="#979797" stroke-linecap="square"></path>
        <path d="M423.429138,80.9643345 C423.562268,80.4584045 423.562268,80.3785145 423.562268,80.1388345 C423.562268,79.4731945 423.056338,79.1536345 422.523828,79.1536345 C422.151028,79.1536345 421.591858,79.3666545 421.272288,79.9258145 C421.192468,80.0856045 420.899558,81.2039345 420.766428,81.8429945 C420.500108,82.7749645 420.260498,83.7601745 420.047478,84.7187945 L418.423208,91.1892745 C418.290018,91.7217945 416.745638,94.2513755 414.375839,94.2513755 C412.538512,94.2513755 412.139098,92.6537615 412.139098,91.3224045 C412.139098,89.6714845 412.751531,87.4613945 413.976384,84.2927545 C414.535552,82.8282045 414.695334,82.4288145 414.695334,81.7098645 C414.695334,80.0856045 413.550345,78.7542445 411.739684,78.7542445 C408.331369,78.7542445 407,83.9731945 407,84.2927545 C407,84.6654845 407.372781,84.6654845 407.426039,84.6654845 C407.79882,84.6654845 407.825453,84.5856645 408.01184,83.9998445 C408.970428,80.6447645 410.408315,79.5530145 411.633174,79.5530145 C411.926078,79.5530145 412.538512,79.5530145 412.538512,80.6980045 C412.538512,81.6033945 412.165724,82.5352945 411.926078,83.2276545 C410.488199,87.0353545 409.84914,89.0856645 409.84914,90.7632345 C409.84914,93.9585325 412.112472,95.0236315 414.216057,95.0236315 C415.627304,95.0236315 416.852188,94.4111565 417.837388,93.4259495 C417.384698,95.2898885 416.958658,97.0472905 415.52076,98.9378425 C414.588858,100.162702 413.204196,101.201175 411.553297,101.201175 C411.074,101.201175 409.449726,101.094664 408.837293,99.7100375 C409.4231,99.7100375 409.875765,99.7100375 410.381689,99.2839975 C410.727844,98.9378425 411.100625,98.4851775 411.100625,97.7928595 C411.100625,96.6745095 410.115411,96.5413675 409.769256,96.5413675 C408.943803,96.5413675 407.745569,97.1271755 407.745569,98.8845845 C407.745569,100.668626 409.343216,102 411.553297,102 C415.254502,102 418.955728,98.7248225 419.967588,94.6774145 L423.429138,80.9643345" fill="#000000"></path>
        <g fill="#000000">
            <path d="M11.83845,5.18443 C12.05147,4.25246 12.87696,0.95068 15.37996,0.95068 C15.56633,0.95068 16.41841,0.95068 17.19059,1.40331 C16.17873,1.58974 15.45978,2.49506 15.45978,3.34714 C15.45978,3.93296 15.85924,4.5986 16.81779,4.5986 C17.61663,4.5986 18.76162,3.95954 18.76162,2.52164 C18.76162,0.65777 16.63143,0.15184 15.4332,0.15184 C13.32959,0.15184 12.07812,2.06902 11.65208,2.86786 C10.74677,0.49799 8.802936,0.15184 7.764491,0.15184 C4.036632,0.15184 1.986313,4.78504 1.986313,5.69036 C1.986313,6.0365 2.359101,6.0365 2.412352,6.0365 C2.705256,6.0365 2.811766,5.95661 2.89165,5.63712 C4.11651,1.82935 6.486359,0.95068 7.711253,0.95068 C8.376897,0.95068 9.62843,1.27018 9.62843,3.34714 C9.62843,4.46548 9.04261,6.86193 7.711253,11.89451 C7.125431,14.131252 5.873925,15.62239 4.276278,15.62239 C4.063258,15.62239 3.237805,15.62239 2.492236,15.169697 C3.397573,14.983331 4.169768,14.237728 4.169768,13.225935 C4.169768,12.26731 3.397573,11.9744 2.865024,11.9744 C1.773293,11.9744 0.867963,12.90637 0.867963,14.051361 C0.867963,15.702274 2.67863,16.42121 4.249652,16.42121 C6.619494,16.42121 7.924272,13.918232 8.030748,13.678559 C8.456787,15.009984 9.76156,16.42121 11.89176,16.42121 C15.59298,16.42121 17.64329,11.78804 17.64329,10.88272 C17.64329,10.53657 17.32372,10.53657 17.21725,10.53657 C16.89768,10.53657 16.81779,10.6697 16.76456,10.93596 C15.56633,14.770311 13.11657,15.62239 11.97165,15.62239 C10.58698,15.62239 10.00116,14.4774 10.00116,13.25252 C10.00116,12.48033 10.21418,11.68149 10.61364,10.11053 L11.83845,5.18443" id="Fill-1"></path>
            <path d="M28.72031,5.47734 C28.72031,4.81162 28.69366,4.78504 27.97471,4.78504 C26.37709,6.356 24.08712,6.38265 23.07526,6.38265 L23.07526,7.28797 C23.66108,7.28797 25.312,7.28797 26.69659,6.59567 L26.69659,19.37686 C26.69659,20.202313 26.69659,20.521843 24.19359,20.521843 L23.23504,20.521843 L23.23504,21.427173 C23.68773,21.400547 26.77648,21.320663 27.70845,21.320663 C28.48064,21.320663 31.64928,21.400547 32.18186,21.427173 L32.18186,20.521843 L31.24989,20.521843 C28.72031,20.521843 28.72031,20.202313 28.72031,19.37686 L28.72031,5.47734" id="Fill-3"></path>
        </g>
        <g transform="translate(0.000000, 69.000000)" fill="#000000">
            <path d="M11.83845,5.18443 C12.05147,4.25246 12.87696,0.95068 15.37996,0.95068 C15.56633,0.95068 16.41841,0.95068 17.19059,1.40331 C16.17873,1.58974 15.45978,2.49506 15.45978,3.34714 C15.45978,3.93296 15.85924,4.5986 16.81779,4.5986 C17.61663,4.5986 18.76162,3.95954 18.76162,2.52164 C18.76162,0.65777 16.63143,0.15184 15.4332,0.15184 C13.32959,0.15184 12.07812,2.06902 11.65208,2.86786 C10.74677,0.49799 8.802936,0.15184 7.764491,0.15184 C4.036632,0.15184 1.986313,4.78504 1.986313,5.69036 C1.986313,6.0365 2.359101,6.0365 2.412352,6.0365 C2.705256,6.0365 2.811766,5.95661 2.89165,5.63712 C4.11651,1.82935 6.486359,0.95068 7.711253,0.95068 C8.376897,0.95068 9.62843,1.27018 9.62843,3.34714 C9.62843,4.46548 9.04261,6.86193 7.711253,11.89451 C7.125431,14.131252 5.873925,15.62239 4.276278,15.62239 C4.063258,15.62239 3.237805,15.62239 2.492236,15.169697 C3.397573,14.983331 4.169768,14.237728 4.169768,13.225935 C4.169768,12.26731 3.397573,11.9744 2.865024,11.9744 C1.773293,11.9744 0.867963,12.90637 0.867963,14.051361 C0.867963,15.702274 2.67863,16.42121 4.249652,16.42121 C6.619494,16.42121 7.924272,13.918232 8.030748,13.678559 C8.456787,15.009984 9.76156,16.42121 11.89176,16.42121 C15.59298,16.42121 17.64329,11.78804 17.64329,10.88272 C17.64329,10.53657 17.32372,10.53657 17.21725,10.53657 C16.89768,10.53657 16.81779,10.6697 16.76456,10.93596 C15.56633,14.770311 13.11657,15.62239 11.97165,15.62239 C10.58698,15.62239 10.00116,14.4774 10.00116,13.25252 C10.00116,12.48033 10.21418,11.68149 10.61364,10.11053 L11.83845,5.18443" id="Fill-1"></path>
            <path d="M32.9807,16.873882 L32.12863,16.873882 C32.07532,17.406431 31.80906,18.897569 31.48957,19.137215 C31.27655,19.296976 29.35937,19.296976 29.01322,19.296976 L24.40661,19.296976 C27.01615,16.953759 27.89482,16.261449 29.41261,15.089806 C31.27655,13.598669 32.9807,12.05429 32.9807,9.68449 C32.9807,6.64891 30.34458,4.78504 27.12263,4.78504 C24.00722,4.78504 21.90368,6.96847 21.90368,9.25845 C21.90368,10.53657 22.99536,10.6697 23.23504,10.6697 C23.84744,10.6697 24.56639,10.24366 24.56639,9.33827 C24.56639,8.88565 24.40661,8.00692 23.10191,8.00692 C23.8741,6.24952 25.57825,5.69036 26.74983,5.69036 C29.25283,5.69036 30.5576,7.63412 30.5576,9.68449 C30.5576,11.84127 29.01322,13.572084 28.21438,14.4774 L22.16994,20.441958 C21.90368,20.681604 21.90368,20.734862 21.90368,21.427173 L32.2351,21.427173 L32.9807,16.873882" id="Fill-3"></path>
        </g>
        <g transform="translate(8.000000, 173.000000)" fill="#000000">
            <path d="M11.82859,5.97429 C12.04161,5.04232 12.86703,1.7139 15.39662,1.7139 C15.5564,1.7139 16.43513,1.7139 17.18066,2.19317 C16.1688,2.37961 15.44992,3.25827 15.44992,4.137 C15.44992,4.69617 15.84931,5.38847 16.80786,5.38847 C17.6067,5.38847 18.75169,4.74941 18.75169,3.31158 C18.75169,1.44764 16.64815,0.94171 15.42327,0.94171 C13.34631,0.94171 12.06819,2.83223 11.64215,3.65773 C10.73684,1.28786 8.819659,0.94171 7.781213,0.94171 C4.026709,0.94171 1.976396,5.5749 1.976396,6.45357 C1.976396,6.82637 2.349177,6.82637 2.429061,6.82637 C2.695332,6.82637 2.801842,6.74648 2.881726,6.42698 C4.106593,2.61921 6.476435,1.7139 7.701322,1.7139 C8.366966,1.7139 9.645084,2.06004 9.645084,4.137 C9.645084,5.25534 9.032678,7.65186 7.701322,12.68444 C7.115494,14.89453 5.864002,16.41225 4.29298,16.41225 C4.07996,16.41225 3.254514,16.41225 2.482313,15.95963 C3.38765,15.77319 4.18647,15.02766 4.18647,14.0158 C4.18647,13.03059 3.38765,12.76433 2.855101,12.76433 C1.763376,12.76433 0.8846672,13.69624 0.8846672,14.84122 C0.8846672,16.49214 2.668707,17.211094 4.239729,17.211094 C6.609571,17.211094 7.914342,14.68151 8.020818,14.46849 C8.446857,15.79985 9.751628,17.211094 11.90841,17.211094 C15.60964,17.211094 17.63336,12.5779 17.63336,11.67258 C17.63336,11.32643 17.31379,11.32643 17.20732,11.32643 C16.88775,11.32643 16.80786,11.45956 16.75463,11.69924 C15.5564,15.56017 13.10671,16.41225 11.96172,16.41225 C10.57705,16.41225 9.991233,15.26726 9.991233,14.04245 C9.991233,13.24361 10.20425,12.47142 10.60371,10.87374 L11.82859,5.97429" id="Fill-1"></path>
            <path d="M23.38489,20.619409 C23.27834,20.965565 23.14522,21.577998 23.14522,21.657882 C23.14522,22.217057 23.59791,22.456702 23.99729,22.456702 C24.44999,22.456702 24.84937,22.137173 24.9825,21.897527 C25.08905,21.684508 25.30207,20.885681 25.40854,20.353131 C25.54167,19.873806 25.808,18.728885 25.96771,18.089826 C26.12749,17.557243 26.26062,16.99807 26.39375,16.41225 C26.66007,15.40039 26.71331,15.18737 27.45885,14.17558 C28.15121,13.16372 29.32279,11.85895 31.21338,11.85895 C32.65121,11.85895 32.67786,13.13707 32.67786,13.61641 C32.67786,15.10755 31.61277,17.903391 31.21338,18.941905 C30.92047,19.660787 30.84058,19.873806 30.84058,20.29988 C30.84058,21.631249 31.93226,22.456702 33.21038,22.456702 C35.71338,22.456702 36.83171,18.995143 36.83171,18.622341 C36.83171,18.302846 36.48557,18.302846 36.43233,18.302846 C36.05953,18.302846 36.03294,18.462559 35.95305,18.728885 C35.36723,20.725919 34.30213,21.764392 33.29027,21.764392 C32.75775,21.764392 32.65121,21.41823 32.65121,20.885681 C32.65121,20.29988 32.78434,19.98035 33.23703,18.862014 C33.52994,18.063173 34.56839,15.42705 34.56839,14.0158 C34.56839,11.59269 32.65121,11.16665 31.31985,11.16665 C29.21631,11.16665 27.83165,12.44477 27.08611,13.42998 C26.89968,11.69924 25.40854,11.16665 24.39675,11.16665 C23.305,11.16665 22.74583,11.93884 22.39968,12.49801 C21.8671,13.42998 21.52095,14.86788 21.52095,15.00101 C21.52095,15.32057 21.8671,15.32057 21.94699,15.32057 C22.29314,15.32057 22.31979,15.24068 22.47957,14.57497 C22.85231,13.08383 23.33165,11.85895 24.31686,11.85895 C24.9825,11.85895 25.14228,12.41812 25.14228,13.08383 C25.14228,13.56311 24.92926,14.49508 24.7429,15.16079 C24.55646,15.85309 24.31686,16.86495 24.18373,17.424114 L23.38489,20.619409" id="Fill-3"></path>
            <path d="M49.13362,18.808708 C48.30819,19.048381 48.30819,19.847222 48.30819,19.847222 C48.30819,20.166717 48.52121,20.592784 49.10703,20.592784 C49.61289,20.592784 50.22537,20.166717 50.22537,19.367944 C50.22537,18.329431 49.05373,17.903391 48.09517,17.903391 C46.92353,17.903391 46.17799,18.648994 45.83185,19.128272 C45.24603,18.116411 44.10104,17.903391 43.46198,17.903391 C41.2253,17.903391 39.94719,20.007003 39.94719,20.672661 C39.94719,20.938939 40.24003,20.938939 40.31992,20.938939 C40.4797,20.938939 40.61283,20.912313 40.69272,20.725919 C41.2253,18.96849 42.68979,18.515866 43.38209,18.515866 C43.96791,18.515866 44.6602,18.75547 44.6602,19.714093 C44.6602,20.166717 44.31406,21.391604 43.72823,23.761446 C43.46198,24.799919 42.63655,25.412352 41.86436,25.412352 C41.73117,25.412352 41.2253,25.412352 40.77261,25.119449 C41.59804,24.826545 41.59804,24.134234 41.59804,24.080976 C41.59804,23.548427 41.19865,23.335407 40.79926,23.335407 C40.34657,23.335407 39.70751,23.681569 39.70751,24.533648 C39.70751,25.625372 40.90574,25.998153 41.81106,25.998153 C42.79626,25.998153 43.62176,25.438978 44.0478,24.799919 C44.76675,25.865017 45.91174,25.998153 46.44425,25.998153 C48.70758,25.998153 49.9857,23.867956 49.9857,23.228897 C49.9857,22.989252 49.6662,22.989252 49.61289,22.989252 C49.2934,22.989252 49.26675,23.095762 49.21351,23.25553 C48.68099,24.853177 47.32298,25.412352 46.52414,25.412352 C45.99156,25.412352 45.24603,25.199333 45.24603,24.187486 C45.24603,23.974466 45.24603,23.867956 45.40581,23.25553 C45.69872,22.004037 46.17799,20.007003 46.33778,19.68744 C46.5508,19.234747 47.1632,18.515866 48.06852,18.515866 C48.12176,18.515866 48.73423,18.515866 49.13362,18.808708" id="Fill-4"></path>
        </g>
    </g>
</svg>